<svg width="32" height="32" viewBox="0 0 32 32" fill="none" xmlns="http://www.w3.org/2000/svg">
<rect x="0.5" y="0.5" width="31" height="31" rx="6.5" fill="white" stroke="#F8F8F8"/>
<path opacity="0.1" d="M20.605 10.7532C19.9624 10.2534 19.2533 10 18.4973 10C17.5435 10 16.5132 10.4152 15.5 11.2049C14.4868 10.4152 13.4565 10 12.5027 10C11.7467 10 11.0376 10.2534 10.395 10.7532C9.45478 11.4844 8.98563 12.4072 9.00034 13.4958C9.05092 17.2236 14.9855 21.6223 15.238 21.8077L15.5 22L15.762 21.8077C16.0146 21.6223 21.9491 17.2236 21.9997 13.4958C22.0144 12.4072 21.5452 11.4844 20.605 10.7532ZM18.1985 18.4589C17.0998 19.586 15.9912 20.4831 15.5 20.8653C15.0088 20.4831 13.9002 19.5861 12.8015 18.4589C10.9192 16.5277 9.91491 14.807 9.89721 13.4826C9.88657 12.6889 10.2273 12.0341 10.9389 11.4807C11.4216 11.1052 11.9478 10.9149 12.5027 10.9149C13.5529 10.9149 14.5559 11.5819 15.2124 12.1414L15.5 12.3865L15.7876 12.1414C16.4441 11.5819 17.4471 10.9149 18.4973 10.9149C19.0522 10.9149 19.5784 11.1052 20.0611 11.4807C20.7727 12.0341 21.1134 12.6889 21.1028 13.4826C21.0851 14.807 20.0808 16.5277 18.1985 18.4589Z" fill="black"/>
</svg>
